<svg id="Layer_1" data-name="Layer 1" xmlns="http://www.w3.org/2000/svg" viewBox="0 0 500 500"><defs><style>.cls-1{fill:#00aeef;}.cls-2{fill:#fff200;}</style></defs><g id="star"><polygon class="cls-1" points="250 221.98 259.11 240.43 279.46 243.38 264.73 257.75 268.21 278.02 250 268.45 231.79 278.02 235.27 257.75 220.54 243.38 240.9 240.43 250 221.98"/></g><g id="people"><path class="cls-2" d="M151.11,132.62c-28.27,22.81-44.16,59.74-42.59,95.49C110.7,277.83,145.78,310.7,147,310s-28.87-32.58-27.28-75.68c1.73-47,40.2-83,43-81.35,2.05,1.22-16.68,22.35-20.69,57.28-5.6,48.62,21.42,88.32,23,87.75s-22.34-38.11-11.8-81.54c2-8.24,10.29-36.16,36.31-54.87,32.39-23.28,75.51-15.93,75.75-13.89.14,1.26-16.75-.13-34.82,10-34.6,19.35-44.45,64.58-42,65.85,2,1.06,9.87-29.76,40-47,9.66-5.53,26.53-12.48,46.07-16.2,18.43-3.51,26.3-1.62,32-8.49,8-9.54,5.86-27.78-2.59-39.12-8.08-10.84-20.3-13.16-44.61-17.77-4.76-.91-20.9-3.87-48.51-4.07-22.94-.17-49.37,1.59-49.39,3.65,0,1.63,16.58,2.26,54.35,6.81,35.78,4.3,53.19,7.62,53.13,8.21s-30-7.41-64.94-.12C193,111.73,171.44,116.22,151.11,132.62Z"/><ellipse class="cls-2" cx="330.93" cy="147.06" rx="28.5" ry="38"/><path class="cls-2" d="M363.05,355.57c23.26-25.38,36.46-64.15,27.83-100.79C382.2,217.91,354.34,195.07,353,196s21.33,21.78,25.88,54.31c6.44,46.09-27.11,88.22-30.32,86.87-2.35-1,13.7-24.6,11.89-59.73-2.42-47-35-80.28-36.45-79.45s27.51,32.45,24.45,75c-.39,5.44-3.48,36-27.7,59.68-28.54,27.87-72.27,27.06-72.81,25.08-.34-1.23,16.57-2.38,32.93-15.08,31.32-24.31,34.29-70.51,31.68-71.4-2.17-.74-5.31,30.9-32.51,52.46-8.72,6.91-24.37,16.31-43.13,22.91-17.69,6.23-25.76,5.54-30.4,13.19-6.45,10.62-1.63,28.34,8.42,38.29,9.6,9.51,22,10,46.76,10.9,4.84.18,21.25.69,48.57-3.24,22.71-3.26,48.58-9,48.29-11-.22-1.62-16.72.24-54.76,1.4-36,1.1-53.73.43-53.76-.16s30.77,2.83,64.23-9.61C324.79,382.49,345.41,374.82,363.05,355.57Z"/><ellipse class="cls-2" cx="186.22" cy="356.72" rx="28.5" ry="38" transform="translate(-51.29 31.88) rotate(-8.61)"/></g></svg>