<svg id="Layer_1" data-name="Layer 1" xmlns="http://www.w3.org/2000/svg" viewBox="0 0 500 500"><defs><style>.cls-1{fill:#ed1c24;}</style></defs><path class="cls-1" d="M151.11,132.62c-38.46,31-41.58,79.63-42.59,95.49-1.2,18.72,1.1,38.82,3.58,38.95,2.2.11,3.48-15.72,7.62-32.74,11.72-48.22,40.7-82.58,43-81.35,1.73.93-12.89,22.12-20.69,57.28-8.36,37.64-5.38,69.41-3.39,69.55s.39-27.92,14.59-63.34c7.64-19.09,16-40.26,36.31-54.87,32.39-23.28,75.51-15.93,75.75-13.89.14,1.26-16.75-.13-34.82,10-34.6,19.35-44.45,64.58-42,65.85,2,1.06,9.87-29.76,40-47,9.66-5.53,26.53-12.48,46.07-16.2,18.43-3.51,26.3-1.62,32-8.49,8-9.54,5.86-27.78-2.59-39.12-8.08-10.84-20.3-13.16-44.61-17.77-4.76-.91-20.9-3.87-48.51-4.07-22.94-.17-49.37,1.59-49.39,3.65,0,1.63,16.58,2.26,54.35,6.81,35.78,4.3,53.19,7.62,53.13,8.21s-30-7.41-64.94-.12C193,111.73,171.44,116.22,151.11,132.62Z"/><ellipse class="cls-1" cx="330.93" cy="137.87" rx="28.5" ry="38"/><path class="cls-1" d="M363.05,355.57c33.39-36.44,29.2-85,27.83-100.79-1.61-18.69-6.9-38.23-9.37-38-2.2.22-1.09,16.06-2.63,33.51-4.37,49.44-27.89,87.74-30.32,86.87-1.85-.66,9.44-23.8,11.89-59.73,2.63-38.47-5.07-69.43-7.06-69.28s3.79,27.66-4.94,64.81c-4.71,20-9.79,42.2-27.7,59.68-28.54,27.87-72.27,27.06-72.81,25.08-.34-1.23,16.57-2.38,32.93-15.08,31.32-24.31,34.29-70.51,31.68-71.4-2.17-.74-5.31,30.9-32.51,52.46-8.72,6.91-24.37,16.31-43.13,22.91-17.69,6.23-25.76,5.54-30.4,13.19-6.45,10.62-1.63,28.34,8.42,38.29,9.6,9.51,22,10,46.76,10.9,4.84.18,21.25.69,48.57-3.24,22.71-3.26,48.58-9,48.29-11-.22-1.62-16.72.24-54.76,1.4-36,1.1-53.73.43-53.76-.16s30.77,2.83,64.23-9.61C324.79,382.49,345.41,374.82,363.05,355.57Z"/><ellipse class="cls-1" cx="186.22" cy="371.32" rx="28.5" ry="38" transform="translate(-53.47 32.05) rotate(-8.61)"/></svg>