<svg id="Layer_1" data-name="Layer 1" xmlns="http://www.w3.org/2000/svg" viewBox="0 0 500 500"><defs><style>.cls-1{fill:#fff200;}</style></defs><path class="cls-1" d="M250,76.75A173.25,173.25,0,1,0,423.25,250,173.25,173.25,0,0,0,250,76.75Zm-105.17,206A32.76,32.76,0,1,1,177.59,250,32.76,32.76,0,0,1,144.83,282.76ZM250.6,336.84H250a30.39,30.39,0,0,1-21.41-8.9,31.26,31.26,0,0,1-9.46-22.5h3.78a27.54,27.54,0,0,0,8.33,19.81,26.53,26.53,0,0,0,19.26,7.81c14.11-.27,26-12.18,26.53-26.56l3.77.14A31.1,31.1,0,0,1,250.6,336.84Zm104.57-54.08A32.76,32.76,0,1,1,387.93,250,32.76,32.76,0,0,1,355.17,282.76Z"/></svg>